<svg width="20" height="20" viewBox="0 0 20 20" fill="none" xmlns="http://www.w3.org/2000/svg">
<mask id="path-1-inside-1_2012_4168" fill="white">
<path d="M16.3691 7.90705C16.3691 7.96371 15.925 13.581 15.6713 15.9451C15.5125 17.3959 14.5772 18.2759 13.1743 18.3009C12.0964 18.325 11.0412 18.3334 10.003 18.3334C8.90076 18.3334 7.82284 18.325 6.77654 18.3009C5.42064 18.2684 4.48456 17.3709 4.33381 15.9451C4.07284 13.5727 3.63682 7.96371 3.62871 7.90705C3.62061 7.73622 3.67572 7.57373 3.78756 7.44206C3.89778 7.3204 4.05663 7.24707 4.22359 7.24707H15.7824C15.9485 7.24707 16.0993 7.3204 16.2184 7.44206C16.3294 7.57373 16.3854 7.73622 16.3691 7.90705Z"/>
</mask>
<path d="M15.6713 15.9451L16.8642 16.0757L16.8645 16.0731L15.6713 15.9451ZM13.1743 18.3009L13.1529 17.101L13.1474 17.1012L13.1743 18.3009ZM6.77654 18.3009L6.74778 19.5005L6.74883 19.5005L6.77654 18.3009ZM4.33381 15.9451L5.52717 15.8189L5.52662 15.8139L4.33381 15.9451ZM3.62871 7.90705L2.43006 7.96392L2.43275 8.02069L2.4408 8.07695L3.62871 7.90705ZM3.78756 7.44206L2.89825 6.63638L2.88539 6.65057L2.873 6.66516L3.78756 7.44206ZM16.2184 7.44206L17.1357 6.66845L17.107 6.63435L17.0758 6.60248L16.2184 7.44206ZM15.1691 7.90705C15.1691 7.85213 15.1738 7.8048 15.1674 7.8922C15.1642 7.93511 15.1594 7.99801 15.1531 8.07932C15.1406 8.24164 15.1223 8.47388 15.0996 8.75901C15.0541 9.32915 14.9908 10.109 14.9195 10.9608C14.7767 12.6692 14.6033 14.6511 14.4782 15.8171L16.8645 16.0731C16.993 14.8751 17.1686 12.8662 17.3112 11.1608C17.3827 10.3057 17.4463 9.5228 17.492 8.94989C17.5148 8.66349 17.5333 8.42911 17.546 8.26415C17.5524 8.18183 17.5574 8.11593 17.5608 8.06917C17.561 8.06691 17.5691 7.96905 17.5691 7.90705H15.1691ZM14.4785 15.8145C14.4241 16.3109 14.2509 16.6104 14.0662 16.7845C13.8851 16.9552 13.6008 17.0931 13.1529 17.101L13.1957 19.5007C14.1508 19.4836 15.0355 19.169 15.7125 18.5308C16.3859 17.896 16.7597 17.0301 16.8642 16.0757L14.4785 15.8145ZM13.1474 17.1012C12.0808 17.1251 11.0349 17.1334 10.003 17.1334V19.5334C11.0475 19.5334 12.112 19.525 13.2012 19.5006L13.1474 17.1012ZM10.003 17.1334C8.9064 17.1334 7.83832 17.1251 6.80425 17.1012L6.74883 19.5005C7.80737 19.525 8.89511 19.5334 10.003 19.5334V17.1334ZM6.80529 17.1012C6.39468 17.0914 6.11878 16.9574 5.93555 16.781C5.7482 16.6006 5.57778 16.2977 5.52716 15.8189L3.14046 16.0713C3.24059 17.0183 3.61358 17.877 4.27093 18.5099C4.93241 19.1468 5.8025 19.4779 6.74778 19.5005L6.80529 17.1012ZM5.52662 15.8139C5.39812 14.6458 5.2251 12.6659 5.08226 10.9577C5.01108 10.1064 4.94776 9.32707 4.90171 8.7567C4.85956 8.23463 4.82562 7.80003 4.81662 7.73714L2.4408 8.07695C2.43586 8.0424 2.45946 8.33016 2.5095 8.94986C2.55563 9.52124 2.61915 10.3031 2.69061 11.1577C2.83306 12.8612 3.00853 14.872 3.14101 16.0763L5.52662 15.8139ZM4.82736 7.85018C4.83369 7.98364 4.78699 8.11907 4.70213 8.21896L2.873 6.66516C2.56445 7.02839 2.40752 7.4888 2.43006 7.96392L4.82736 7.85018ZM4.67687 8.24775C4.56717 8.36883 4.40654 8.44707 4.22359 8.44707V6.04707C3.70673 6.04707 3.22839 6.27197 2.89825 6.63638L4.67687 8.24775ZM4.22359 8.44707H15.7824V6.04707H4.22359V8.44707ZM15.7824 8.44707C15.5742 8.44707 15.4286 8.3507 15.361 8.28165L17.0758 6.60248C16.7699 6.2901 16.3229 6.04707 15.7824 6.04707V8.44707ZM15.3011 8.21568C15.2216 8.12142 15.1578 7.9695 15.1745 7.79369L17.5638 8.0204C17.6129 7.50294 17.4373 7.02603 17.1357 6.66845L15.3011 8.21568Z" fill="white" mask="url(#path-1-inside-1_2012_4168)"/>
<path d="M7.14424 3.65462L7.14429 3.65438L7.26939 3.09562C7.40558 2.57586 7.82721 2.26669 8.2802 2.26669H11.7206C12.1744 2.26669 12.5962 2.58473 12.7228 3.05702L12.8563 3.65266L13.442 3.52245L12.8566 3.65368L12.8564 3.6532C13.0256 4.41282 13.6902 4.96992 14.4762 4.96992H16.8982C16.8983 4.97008 16.8984 4.97024 16.8984 4.97041C16.8989 4.97155 16.9 4.97457 16.9 4.98074V5.29739C16.9 5.29962 16.8996 5.30132 16.8989 5.30316C16.8982 5.30488 16.8971 5.30664 16.8958 5.3082H3.10424C3.10293 5.30663 3.10184 5.30482 3.10111 5.30308C3.10037 5.30129 3.1 5.29962 3.1 5.29739V4.98074C3.1 4.97457 3.10109 4.97158 3.10155 4.97049C3.10163 4.97029 3.10171 4.9701 3.1018 4.96992H5.52464C6.31013 4.96992 6.97422 4.41253 7.14424 3.65462Z" stroke="white" stroke-width="1.2"/>
</svg>
