<svg width="20" height="20" viewBox="0 0 20 20" fill="none" xmlns="http://www.w3.org/2000/svg">
<path fill-rule="evenodd" clip-rule="evenodd" d="M9.99984 3.33329C8.37298 3.33329 6.87331 3.46746 5.66959 3.62644C4.58627 3.76951 3.76939 4.5864 3.62632 5.66971C3.46734 6.87343 3.33317 8.3731 3.33317 9.99996C3.33317 11.6268 3.46734 13.1265 3.62632 14.3302C3.76939 15.4135 4.58627 16.2304 5.66959 16.3735C6.87331 16.5325 8.37298 16.6666 9.99984 16.6666C11.6267 16.6666 13.1264 16.5325 14.3301 16.3735C15.4134 16.2304 16.2303 15.4135 16.3734 14.3302C16.5323 13.1265 16.6665 11.6268 16.6665 9.99996C16.6665 8.3731 16.5323 6.87343 16.3734 5.66971C16.2303 4.5864 15.4134 3.76951 14.3301 3.62644C13.1264 3.46746 11.6267 3.33329 9.99984 3.33329ZM5.45137 1.97412C3.62071 2.2159 2.21577 3.62083 1.974 5.45149C1.80778 6.71003 1.6665 8.28435 1.6665 9.99996C1.6665 11.7156 1.80778 13.2899 1.974 14.5484C2.21577 16.3791 3.62071 17.784 5.45137 18.0258C6.70991 18.192 8.28423 18.3333 9.99984 18.3333C11.7154 18.3333 13.2898 18.192 14.5483 18.0258C16.379 17.784 17.7839 16.3791 18.0257 14.5484C18.1919 13.2899 18.3332 11.7156 18.3332 9.99996C18.3332 8.28435 18.1919 6.71003 18.0257 5.45149C17.7839 3.62083 16.379 2.2159 14.5483 1.97412C13.2898 1.8079 11.7154 1.66663 9.99984 1.66663C8.28423 1.66663 6.70991 1.8079 5.45137 1.97412Z" fill="#777E90"/>
<path fill-rule="evenodd" clip-rule="evenodd" d="M8.16075 6.49408C7.83531 6.81951 7.83531 7.34715 8.16075 7.67259L10.4882 10L8.16075 12.3274C7.83531 12.6528 7.83531 13.1805 8.16075 13.5059C8.48618 13.8314 9.01382 13.8314 9.33926 13.5059L12.2559 10.5893C12.5814 10.2638 12.5814 9.73618 12.2559 9.41074L9.33926 6.49408C9.01382 6.16864 8.48618 6.16864 8.16075 6.49408Z" fill="#777E90"/>
</svg>
